<svg width="63" height="64" viewBox="0 0 63 64" fill="none" xmlns="http://www.w3.org/2000/svg">
<path d="M62.8719 9.03115C62.7084 8.64181 62.3273 8.38824 61.9047 8.38824L55.6027 8.41539L55.5796 1.93458C55.5776 1.51041 55.3204 1.12877 54.928 0.968425C54.5351 0.80757 54.0843 0.899267 53.7856 1.20049L47.5138 7.51942C47.3197 7.71459 47.2106 7.97842 47.2095 8.25402V15.3209L44.0124 18.5175C33.7689 9.09518 17.9381 9.35337 8.00706 19.1051C-1.92393 28.8562 -2.47104 44.68 6.76326 55.0935C15.997 65.5076 31.7721 66.8585 42.6421 58.1661C53.5121 49.4733 55.6631 33.7874 47.5348 22.4897C47.1962 22.0189 46.5405 21.9118 46.0702 22.2504C45.5994 22.5885 45.4924 23.2443 45.831 23.715C53.5162 34.2521 51.5951 48.9636 41.4618 57.1744C31.3284 65.3851 16.5385 64.2136 7.82367 54.5105C-0.890664 44.807 -0.471622 29.9761 8.7765 20.7802C18.0246 11.5843 32.8576 11.2493 42.5114 20.019L41.0192 21.5138C32.4647 13.844 19.4226 14.1421 11.2272 22.1946C3.03132 30.2466 2.50368 43.2814 10.0213 51.9702C17.5395 60.6589 30.5144 62.0098 39.6616 55.0571C48.8083 48.104 50.9773 35.2397 44.6169 25.6714C44.2875 25.217 43.6584 25.1023 43.1897 25.4117C42.721 25.7206 42.5791 26.344 42.867 26.8256C44.8198 29.7804 45.9442 33.205 46.1225 36.7422H43.013C42.4336 36.7422 41.9638 37.212 41.9638 37.7914C41.9638 38.3708 42.4336 38.8405 43.013 38.8405H46.1066C45.5615 49.0061 37.4414 57.1267 27.2758 57.6713V54.5776C27.2758 53.9983 26.8061 53.5285 26.2267 53.5285C25.6473 53.5285 25.1775 53.9983 25.1775 54.5776V57.6713C15.0114 57.1267 6.89133 49.0061 6.34626 38.8405H9.44041C10.0198 38.8405 10.4896 38.3708 10.4896 37.7914C10.4896 37.212 10.0198 36.7422 9.44041 36.7422H6.34626C6.89133 26.5766 15.0114 18.456 25.1775 17.9109V21.0051C25.1775 21.5845 25.6473 22.0542 26.2267 22.0542C26.8061 22.0542 27.2758 21.5845 27.2758 21.0051V17.9089C31.8279 18.1389 36.1602 19.937 39.5372 22.9984L25.4849 37.0496C25.2119 37.3129 25.1028 37.7033 25.1985 38.07C25.2949 38.4368 25.5812 38.7232 25.948 38.819C26.3148 38.9153 26.7046 38.8057 26.9685 38.5331L48.6931 16.8085H55.637C55.9177 16.8075 56.1856 16.6938 56.3818 16.494L62.6495 10.1715C62.9467 9.87077 63.0343 9.4215 62.8719 9.03115ZM49.3078 8.68997L53.4854 4.47393L53.5044 9.03115L49.3078 13.2277V8.68997ZM55.1995 14.7102H50.7934L54.99 10.5137L59.3781 10.4968L55.1995 14.7102Z" fill="#FF3131"/>
<path d="M26.2267 34.6439C26.8061 34.6439 27.2758 34.1742 27.2758 33.5948C27.2758 33.0154 26.8061 32.5457 26.2267 32.5457C23.3292 32.5457 20.981 34.8944 20.981 37.7914C20.981 40.6883 23.3292 43.0371 26.2267 43.0371C29.1236 43.0371 31.4724 40.6883 31.4724 37.7914C31.4724 37.212 31.0026 36.7422 30.4232 36.7422C29.8439 36.7422 29.3741 37.212 29.3741 37.7914C29.3741 39.5295 27.9648 40.9388 26.2267 40.9388C24.488 40.9388 23.0792 39.5295 23.0792 37.7914C23.0792 36.0532 24.488 34.6439 26.2267 34.6439Z" fill="#FF3131"/>
</svg>
