<svg width="56" height="56" viewBox="0 0 56 56" fill="none" xmlns="http://www.w3.org/2000/svg">
<g clip-path="url(#clip0)">
<path d="M0.470294 5.74027L4.13835 12.159C4.26208 12.3759 4.46917 12.5328 4.71135 12.5936L8.13346 13.4491L19.8706 25.1862L21.1674 23.8897L9.24663 11.9693C9.12932 11.8516 8.9822 11.7682 8.82113 11.7278L5.53293 10.9029L2.40994 5.43473L5.08743 2.75724L10.5578 5.88324L11.3832 9.17144C11.4232 9.33289 11.5069 9.48038 11.6242 9.5977L23.5451 21.5185L24.8415 20.2216L13.1044 8.48453L12.2489 5.0643C12.1882 4.82175 12.0312 4.61428 11.8143 4.49018L5.39524 0.822491C5.03726 0.618794 4.58687 0.679149 4.2949 0.969983L0.627216 4.63804C0.332232 4.92812 0.268105 5.37928 0.470294 5.74027Z" fill="#EB1616"/>
<path d="M38.5937 18.7672L18.4205 38.9408L17.1237 37.6439L37.2972 17.4707L38.5937 18.7672Z" fill="#EB1616"/>
<path d="M14.8898 39.6545C14.7238 39.3783 14.4258 39.2097 14.1037 39.2097H8.60198C8.28022 39.2097 7.98184 39.3783 7.81624 39.6545L5.06519 44.2392C4.89054 44.5296 4.89054 44.8929 5.06519 45.1837L7.81624 49.7684C7.98184 50.0442 8.28022 50.2132 8.60198 50.2132H14.1037C14.4258 50.2132 14.7238 50.0442 14.8898 49.7684L17.6405 45.1837C17.8151 44.8929 17.8151 44.5296 17.6405 44.2392L14.8898 39.6545ZM13.585 48.3791H9.12103L6.92035 44.7114L9.12103 41.0434H13.585L15.7857 44.7114L13.585 48.3791Z" fill="#EB1616"/>
<path d="M44.3636 22.7042C50.4198 22.7245 55.3463 17.8313 55.3666 11.775C55.3697 10.8531 55.2565 9.93498 55.0298 9.04136C54.9076 8.54984 54.41 8.25071 53.9185 8.37293C53.7571 8.41329 53.6099 8.49665 53.4923 8.61397L47.7842 14.3182L43.2553 12.809L41.745 8.28126L47.453 2.57208C47.811 2.21372 47.8106 1.63319 47.4523 1.27521C47.3342 1.15714 47.1856 1.0734 47.023 1.03341C41.1497 -0.453956 35.1833 3.10132 33.6959 8.97421C33.4699 9.8652 33.3572 10.7811 33.3602 11.7004C33.3624 12.4224 33.4367 13.1421 33.5831 13.849L13.5012 33.9305C12.7943 33.7845 12.0745 33.7102 11.3529 33.7076C5.27558 33.7076 0.349121 38.634 0.349121 44.7114C0.349121 50.7884 5.27558 55.7148 11.3529 55.7148C17.4299 55.7148 22.3564 50.7884 22.3564 44.7114C22.3541 43.9894 22.2794 43.2697 22.1334 42.5628L26.9411 37.7551L29.0437 39.8577C29.402 40.2157 29.9822 40.2157 30.3405 39.8577L30.7989 39.399C31.201 38.9996 31.8509 38.9996 32.253 39.399C32.6548 39.7997 32.6555 40.45 32.2549 40.8517L32.253 40.8536L31.7947 41.3119C31.4367 41.6699 31.4367 42.2504 31.7947 42.6084L42.7333 53.547C45.6103 56.4504 50.2961 56.4715 53.1995 53.5945C56.1026 50.7174 56.1237 46.0313 53.2467 43.1282C53.2312 43.1124 53.2154 43.0965 53.1995 43.0807L42.261 32.1425C41.903 31.7845 41.3225 31.7845 40.9645 32.1425L40.5062 32.6008C40.1037 33.0007 39.4541 33.0007 39.0516 32.6008C38.6503 32.2002 38.6491 31.5499 39.0497 31.1486L39.0516 31.1467L39.5103 30.688C39.8683 30.33 39.8683 29.7495 39.5103 29.3915L37.4077 27.2889L42.2153 22.4812C42.9222 22.6272 43.642 22.7019 44.3636 22.7042ZM47.9664 53.8812C47.3002 53.88 46.6397 53.7597 46.0162 53.5255L53.1777 46.3636C54.2584 49.2384 52.8042 52.4447 49.9294 53.5255C49.3021 53.7612 48.6371 53.8819 47.9664 53.8812ZM37.5782 30.049C36.5627 31.2602 36.7219 33.0656 37.9332 34.0807C38.9977 34.9728 40.5492 34.972 41.6126 34.078L51.903 44.3776C52.0147 44.4896 52.1192 44.6077 52.2203 44.7276L44.3802 52.5677C44.2599 52.467 44.1418 52.3625 44.0298 52.2505L33.7313 41.9513C34.7468 40.7401 34.5876 38.9347 33.3764 37.9196C32.3119 37.0271 30.76 37.0282 29.6966 37.9219L28.2296 36.4549L36.1108 28.5854L37.5782 30.049ZM41.281 20.8264L20.4793 41.6239C20.2511 41.8517 20.1594 42.1825 20.2372 42.4952C21.4952 47.4357 18.5099 52.4606 13.5691 53.7182C8.62867 54.9762 3.60375 51.9909 2.34573 47.0501C1.08809 42.1097 4.07339 37.0848 9.01418 35.8268C10.5087 35.4466 12.0745 35.4466 13.5691 35.8268C13.8818 35.9034 14.2119 35.8117 14.4405 35.585L35.2372 14.7871C35.465 14.5593 35.5567 14.2285 35.4782 13.9161C34.2289 9.03343 37.1742 4.06247 42.0569 2.81275C42.9796 2.57698 43.9339 2.48645 44.8845 2.54568L40.0475 7.38462C39.8019 7.62981 39.7159 7.99307 39.8257 8.32238L41.6593 13.8245C41.751 14.098 41.966 14.313 42.2399 14.4039L47.742 16.2379C48.0709 16.3477 48.4342 16.262 48.6797 16.0169L53.5168 11.1798C53.5277 11.3548 53.5334 11.528 53.5334 11.7004C53.559 16.7389 49.4956 20.8441 44.4571 20.8701C43.6782 20.8739 42.9019 20.7781 42.1474 20.585C41.8347 20.5069 41.5039 20.5982 41.2761 20.826L41.281 20.8264Z" fill="#EB1616"/>
<path d="M47.7639 46.8137L46.467 48.1106L37.2976 38.9412L38.5941 37.6443L47.7639 46.8137Z" fill="#EB1616"/>
</g>
<defs>
<clipPath id="clip0">
<rect width="55" height="55" fill="white" transform="translate(0.296265 0.695068)"/>
</clipPath>
</defs>
</svg>
