<svg width="75" height="74" viewBox="0 0 75 74" fill="none" xmlns="http://www.w3.org/2000/svg">
<g clip-path="url(#clip0)">
<path d="M74.0954 37.4042C74.0439 37.2355 73.9464 37.0841 73.8134 36.9666C73.6804 36.8491 73.5171 36.77 73.3415 36.7381L71.2267 36.351L70.8848 34.3426C70.854 34.1731 70.7775 34.0148 70.6633 33.8845C70.5491 33.7542 70.4015 33.6566 70.2359 33.602C70.0703 33.5474 69.8929 33.5378 69.7222 33.5742C69.5516 33.6106 69.394 33.6916 69.266 33.8088L69.2546 33.8195L65.4857 37.3959C65.3648 37.5073 65.271 37.6442 65.2114 37.7964C65.1518 37.9486 65.1279 38.1121 65.1415 38.2748L65.3622 40.783L61.4535 44.6002C58.9703 42.3395 55.8469 40.8801 52.5005 40.4171C49.1541 39.954 45.7442 40.5094 42.7263 42.009C41.8788 40.7534 40.7134 39.7381 39.3456 39.0635L28.8904 35.572V33.5844C30.6057 32.6163 32.0479 31.2398 33.0853 29.5806C34.1228 27.9214 34.7224 26.0323 34.8296 24.0857C35.6529 23.7647 36.3306 23.1606 36.7375 22.3849C37.1443 21.6093 37.2528 20.7146 37.0429 19.8662C36.9318 19.4096 36.7099 18.9864 36.3963 18.6331C36.0827 18.2798 35.6869 18.0068 35.2428 17.8378L35.4529 14.8341C35.5706 13.1523 35.3363 11.4647 34.7647 9.87604C34.1931 8.2874 33.2964 6.83171 32.1303 5.59945C30.9642 4.36719 29.5536 3.38469 27.9863 2.71301C26.419 2.04134 24.7283 1.69484 23.0195 1.69507C19.7176 1.69684 16.5512 2.99061 14.215 5.29254C11.8788 7.59448 10.5636 10.7166 10.558 13.9739C10.558 14.2638 10.568 14.5532 10.5869 14.8338L10.7961 17.8339C10.3499 18.0026 9.95224 18.276 9.63743 18.6305C9.32261 18.985 9.10019 19.4099 8.98942 19.8684C8.92019 20.1497 8.88525 20.4383 8.88536 20.7278C8.88382 21.4536 9.10478 22.163 9.51922 22.7627C9.93367 23.3624 10.5222 23.8246 11.2077 24.0884C11.358 26.9618 12.5874 29.677 14.6565 31.7049C15.4008 32.4388 16.2408 33.0718 17.1544 33.5869V35.5713L6.68487 39.0642C5.33628 39.7302 4.18395 40.7272 3.33858 41.9592C2.49321 43.1913 1.98319 44.6171 1.85753 46.0997C1.8555 46.1234 1.85449 46.1471 1.85449 46.171V58.9546C1.85449 59.1814 1.94586 59.399 2.10849 59.5595C2.27111 59.7199 2.49169 59.81 2.72168 59.81H33.9115C34.4056 62.2756 35.4684 64.5959 37.0175 66.5912C38.5666 68.5865 40.5605 70.2033 42.8448 71.3163C45.129 72.4293 47.6423 73.0088 50.1901 73.0097C52.7378 73.0106 55.2515 72.433 57.5366 71.3217C59.8217 70.2103 61.8168 68.595 63.3674 66.6008C64.918 64.6066 65.9825 62.2871 66.4785 59.8219C66.9744 57.3567 66.8885 54.812 66.2274 52.3848C65.5663 49.9576 64.3477 47.7131 62.666 45.8251L66.574 42.0076L69.1335 42.3086C69.2962 42.3293 69.4615 42.3135 69.6171 42.2623C69.7728 42.2111 69.9146 42.1259 70.0322 42.013L73.8442 38.3666C73.9715 38.2443 74.0623 38.0899 74.1067 37.9201C74.151 37.7504 74.1471 37.5719 74.0954 37.4042ZM40.8811 42.4198C40.9992 42.5624 41.11 42.7109 41.2164 42.8625C40.8527 43.0935 40.4988 43.3377 40.1547 43.5953C40.3666 43.1861 40.6094 42.7931 40.8811 42.4198ZM23.0195 3.40601C24.4905 3.40579 25.9459 3.70404 27.2951 4.28222C28.6443 4.8604 29.8585 5.70615 30.8623 6.76691C31.8661 7.82767 32.6381 9.08076 33.1301 10.4483C33.6222 11.8158 33.8239 13.2686 33.7226 14.7163L33.4682 18.3535C33.4682 18.3577 33.4667 18.3677 33.4664 18.372C33.4624 18.3994 33.4538 18.426 33.4409 18.4506L32.731 18.7785L32.4489 17.6307C31.6388 14.3333 29.6141 11.451 26.7688 9.54485C26.5812 9.41936 26.3513 9.37129 26.1283 9.41095C25.9052 9.4506 25.7068 9.57482 25.5754 9.757C24.5977 11.1116 23.2722 12.1852 21.735 12.8676C20.1978 13.5501 18.5042 13.8167 16.8281 13.6403L15.9564 13.5476C15.7814 13.5288 15.6043 13.5449 15.4356 13.5947C15.267 13.6446 15.1102 13.7274 14.9745 13.838C14.8388 13.9487 14.7269 14.0851 14.6455 14.2391C14.5642 14.3931 14.5149 14.5617 14.5007 14.7348L14.1852 18.6272C13.7261 18.541 13.1214 18.4133 12.5664 18.2873V18.2859L12.3178 14.7177C12.3009 14.4753 12.2924 14.226 12.2924 13.9752C12.2972 11.1713 13.4293 8.48373 15.4404 6.50227C17.4514 4.52082 20.1772 3.40729 23.0195 3.40601ZM6.97509 58.099H3.58872V46.2079C3.71394 44.7952 4.27505 43.4543 5.19649 42.3657C6.35263 43.9608 6.97449 45.8725 6.97509 47.8333V58.099ZM8.70946 58.099V47.8333C8.70873 45.4393 7.92454 43.1094 6.47357 41.1903C6.77002 40.9765 7.08292 40.7859 7.40941 40.62L16.1447 37.7134L11.3337 42.1008C11.172 42.2484 11.0732 42.4511 11.0574 42.6678C11.0417 42.8845 11.1101 43.0991 11.2489 43.2678L12.9721 45.3637L11.8481 46.7566C11.7657 46.8587 11.708 46.9781 11.6796 47.1056C11.6512 47.2331 11.6527 47.3653 11.6841 47.4921L14.3063 58.099H8.70946ZM27.156 58.099H18.8888V48.8656C18.8888 48.6387 18.7974 48.4211 18.6348 48.2607C18.4722 48.1003 18.2516 48.0101 18.0216 48.0101C17.7916 48.0101 17.571 48.1003 17.4084 48.2607C17.2458 48.4211 17.1544 48.6387 17.1544 48.8656V58.099H16.0915L13.4697 47.4949L14.763 45.8924C14.8861 45.74 14.9527 45.5507 14.9518 45.3558C14.9509 45.1609 14.8826 44.9722 14.7582 44.8208L13.1076 42.813L17.1544 39.1228V44.2026C17.1544 44.4295 17.2458 44.6471 17.4084 44.8075C17.571 44.9679 17.7916 45.058 18.0216 45.058C18.2516 45.058 18.4722 44.9679 18.6348 44.8075C18.7974 44.6471 18.8888 44.4295 18.8888 44.2026V41.1839C20.1778 41.7981 21.5909 42.1172 23.0224 42.1172C24.4539 42.1172 25.867 41.7981 27.156 41.1839V58.099ZM27.156 39.2309C25.9176 39.9982 24.4848 40.4052 23.0224 40.4052C21.56 40.4052 20.1272 39.9982 18.8888 39.2309V34.3922C20.2098 34.8794 21.6092 35.1273 23.0195 35.1239C24.4317 35.1231 25.8324 34.874 27.156 34.3885V39.2309ZM27.6264 32.3171C26.2059 33.0347 24.6333 33.4102 23.0373 33.413C21.4414 33.4157 19.8675 33.0456 18.4444 32.333C16.7848 31.4983 15.3912 30.2276 14.4173 28.661C13.4434 27.0945 12.9272 25.293 12.9254 23.4553V23.4382C12.9254 23.2368 12.8534 23.0419 12.7221 22.8877C12.5907 22.7336 12.4084 22.6301 12.2073 22.5954C11.7619 22.5189 11.3583 22.2894 11.0678 21.9476C10.7774 21.6058 10.6188 21.1737 10.6202 20.7277C10.6201 20.5749 10.6383 20.4226 10.6747 20.274C10.7139 20.1027 10.7916 19.9423 10.902 19.8046C11.0124 19.6669 11.1527 19.5554 11.3126 19.4783C11.4514 19.6253 11.6149 19.7475 11.7959 19.8394C11.8584 19.871 11.9246 19.8949 11.9929 19.9107C15.0048 20.6085 15.1545 20.501 15.4826 20.2653C15.5849 20.1908 15.6701 20.0957 15.7324 19.9863C15.7946 19.877 15.8327 19.7558 15.844 19.6308L16.1956 15.2927L16.6429 15.3404C18.4775 15.5335 20.3321 15.2781 22.0429 14.5966C23.7538 13.9152 25.2682 12.8287 26.4526 11.4332C28.6015 13.0921 30.1203 15.4176 30.7633 18.0337L31.2952 20.1979C31.3255 20.321 31.3831 20.436 31.464 20.5345C31.5448 20.6331 31.6468 20.7126 31.7626 20.7675C31.8784 20.8224 32.0052 20.8511 32.1337 20.8518C32.2621 20.8524 32.3892 20.8249 32.5055 20.7712L34.3467 19.9214C34.4296 19.8832 34.5059 19.8322 34.5726 19.7704C34.6551 19.694 34.7309 19.6109 34.7991 19.5219C34.9394 19.6026 35.0614 19.7109 35.1576 19.84C35.2537 19.9691 35.322 20.1164 35.3581 20.2726C35.3947 20.4216 35.4131 20.5745 35.4131 20.7278C35.4128 21.173 35.254 21.6039 34.9644 21.9453C34.6748 22.2867 34.2727 22.5169 33.8286 22.5956C33.6278 22.6305 33.446 22.7342 33.3149 22.8882C33.1839 23.0423 33.1121 23.237 33.1121 23.4381V23.4552C33.1113 25.2865 32.5991 27.0821 31.6316 28.645C30.6642 30.2079 29.2789 31.4777 27.6279 32.3148L27.6264 32.3171ZM28.8904 58.099V39.1346L32.9239 42.8132L31.2735 44.8209C31.1491 44.9724 31.0808 45.1612 31.08 45.3561C31.0792 45.551 31.1459 45.7404 31.2691 45.8928L32.5633 47.4951L29.9405 58.099H28.8904ZM33.6661 58.099H31.7259L34.3492 47.4929C34.3805 47.366 34.382 47.2337 34.3535 47.1061C34.3251 46.9786 34.2673 46.8592 34.1848 46.757L33.0598 45.3643L34.783 43.2684C34.9218 43.0996 34.9902 42.8851 34.9744 42.6683C34.9586 42.4516 34.8598 42.2489 34.6981 42.1014L29.8813 37.7074L38.623 40.6196C38.9701 40.7956 39.3018 41 39.6143 41.2307C38.5396 42.6406 37.8302 44.288 37.5475 46.0299C34.9966 48.9895 33.5964 52.7479 33.5975 56.6327C33.5977 57.1233 33.6225 57.6131 33.6661 58.099ZM65.0607 56.6333C65.0614 59.5345 64.1899 62.3707 62.5564 64.7833C60.9229 67.1958 58.6008 69.0763 55.8838 70.1869C53.1668 71.2974 50.177 71.5881 47.2925 71.0223C44.408 70.4565 41.7584 69.0595 39.6789 67.008C37.5993 64.9565 36.1832 62.3427 35.6096 59.4972C35.036 56.6517 35.3307 53.7023 36.4565 51.022C37.5822 48.3418 39.4884 46.0511 41.934 44.4396C44.3796 42.8282 47.2547 41.9685 50.1957 41.9691C53.9077 41.9566 57.4876 43.3269 60.2197 45.8059L55.8584 50.0647C54.2823 48.7311 52.2722 48.0018 50.1957 48.0101C48.2169 48.0094 46.2963 48.6709 44.7479 49.8864C43.1995 51.102 42.1148 52.7997 41.6711 54.7021C41.2274 56.6045 41.451 58.5991 42.3053 60.36C43.1596 62.1208 44.594 63.5437 46.3742 64.3962C48.1544 65.2486 50.1751 65.4802 52.106 65.053C54.0369 64.6259 55.7638 63.5653 57.0045 62.0445C58.2453 60.5238 58.9264 58.6329 58.9367 56.6808C58.9469 54.7287 58.2856 52.8309 57.0609 51.2976L61.4297 47.032C63.7785 49.6932 65.0687 53.1047 65.0607 56.6333ZM49.5815 57.399C49.7433 57.5603 49.9634 57.6515 50.1933 57.6526C50.4233 57.6538 50.6444 57.5648 50.8078 57.4052L51.993 56.2482C52.0828 56.6461 52.0351 57.0622 51.8576 57.4304C51.68 57.7985 51.3828 58.0975 51.0131 58.2797C50.6434 58.462 50.2226 58.517 49.8175 58.4361C49.4125 58.3552 49.0465 58.143 48.7778 57.8333C48.5091 57.5235 48.3532 57.134 48.3348 56.7267C48.3163 56.3195 48.4365 55.9178 48.6762 55.5857C48.9159 55.2536 49.2612 55.0101 49.6574 54.8939C50.0535 54.7778 50.4776 54.7956 50.8623 54.9447L49.588 56.1893C49.4244 56.3488 49.3318 56.5658 49.3304 56.7927C49.3291 57.0196 49.4198 57.2377 49.5815 57.399ZM50.1963 53.1074C49.4099 53.105 48.6445 53.3577 48.0181 53.8266C47.3916 54.2955 46.9387 54.9546 46.7293 55.7023C46.5198 56.45 46.5654 57.2449 46.8589 57.9646C47.1525 58.6843 47.6777 59.2888 48.3538 59.6851C49.0298 60.0813 49.8192 60.2473 50.6003 60.1575C51.3814 60.0677 52.1109 59.727 52.6764 59.188C53.2419 58.649 53.6122 57.9415 53.73 57.1745C53.8479 56.4075 53.7069 55.6236 53.3287 54.9434L55.8184 52.5122C56.8818 53.9245 57.3594 55.6836 57.1539 57.4312C56.9483 59.1788 56.0751 60.7833 54.7121 61.9179C53.3492 63.0524 51.599 63.6317 49.8181 63.5377C48.0373 63.4437 46.3598 62.6834 45.1274 61.4118C43.8949 60.1402 43.2003 58.4529 43.185 56.6937C43.1698 54.9344 43.835 53.2356 45.0451 51.9434C46.2552 50.6511 47.9193 49.8626 49.6982 49.7385C51.4772 49.6143 53.2372 50.1639 54.6197 51.2753L52.1524 53.6849C51.571 53.3087 50.8916 53.1081 50.1963 53.1074Z" fill="#EB1616"/>
</g>
<defs>
<clipPath id="clip0">
<rect width="74" height="73" fill="white" transform="translate(0.99585 0.851074)"/>
</clipPath>
</defs>
</svg>
