<svg width="53" height="56" viewBox="0 0 53 56" fill="none" xmlns="http://www.w3.org/2000/svg">
<path d="M52.9726 4.19573C52.9766 3.19347 52.6082 2.25253 51.9354 1.54605C51.2626 0.839565 50.3648 0.453412 49.4121 0.457057C48.4604 0.461238 47.5644 0.85393 46.8892 1.56277C46.6034 1.86294 46.0834 2.51132 45.7989 2.87121C45.5002 3.24911 45.5496 3.80979 45.9095 4.12336C46.2693 4.43705 46.8033 4.38516 47.102 4.00726C47.5475 3.44379 47.9158 3.00007 48.0868 2.82039C48.4439 2.4455 48.9171 2.23773 49.4192 2.23548C49.4219 2.23548 49.4245 2.23548 49.4272 2.23548C49.9236 2.23548 50.3889 2.43703 50.7378 2.80356C51.0887 3.17203 51.281 3.66378 51.2788 4.18822C51.2767 4.71535 51.0788 5.21214 50.7218 5.58725C50.4021 5.92291 49.3034 6.83812 47.7292 7.99283C46.798 6.32107 45.0709 5.19488 43.0971 5.19488H30.6961C29.0221 5.19488 27.4484 5.87938 26.2646 7.12221L1.47672 33.1509C0.975531 33.6771 0.699463 34.3769 0.699463 35.1211C0.699463 35.8653 0.975531 36.5651 1.47672 37.0913L18.0844 54.53C18.6018 55.0732 19.2811 55.3448 19.9607 55.3448C20.6402 55.3448 21.3198 55.0731 21.837 54.53L46.6251 28.5016C47.8087 27.2587 48.4606 25.6062 48.4606 23.8484V10.8269C48.4606 10.4426 48.4235 10.0674 48.3533 9.70446C50.1452 8.40975 51.4606 7.32665 51.9194 6.84487C52.5947 6.13603 52.9686 5.1952 52.9726 4.19573ZM46.7669 23.8484C46.7669 25.1311 46.2911 26.337 45.4275 27.2439L20.6394 53.2725C20.2653 53.6654 19.6562 53.6654 19.2821 53.2725L2.67441 35.8338C2.49319 35.6435 2.39324 35.3904 2.39324 35.1211C2.39324 34.8518 2.49309 34.5988 2.67441 34.4085L27.4624 8.38005C28.3262 7.47309 29.4746 6.97363 30.6961 6.97363H43.097C44.4896 6.97363 45.7035 7.79235 46.325 8.99541C45.3247 9.69095 44.2046 10.4306 43.0163 11.1578C42.9793 11.1152 42.9414 11.0729 42.9021 11.0317C41.5152 9.57539 39.2587 9.57539 37.8718 11.0317C36.4849 12.4879 36.4849 14.8574 37.8718 16.3137C38.5652 17.0418 39.4761 17.4058 40.3869 17.4058C41.2977 17.4058 42.2086 17.0418 42.9021 16.3137C43.8278 15.3416 44.1346 13.9631 43.8246 12.7205C44.8581 12.0887 45.8506 11.443 46.7665 10.8183C46.7666 10.8213 46.7668 10.8241 46.7668 10.827L46.7669 23.8484ZM39.6306 14.0722C39.7794 14.3828 40.0779 14.562 40.3879 14.562C40.5158 14.562 40.6457 14.5315 40.7679 14.4669C41.2642 14.2047 41.7589 13.932 42.2487 13.6526C42.2536 14.1602 42.0728 14.6695 41.7047 15.056C40.9782 15.8188 39.7963 15.8188 39.0698 15.056C38.3434 14.2932 38.3434 13.0522 39.0698 12.2893C39.4331 11.9078 39.9102 11.7172 40.3872 11.7172C40.765 11.7172 41.1416 11.8388 41.4629 12.0778C40.9836 12.3514 40.4971 12.6193 40.0067 12.8784C39.5886 13.0989 39.4203 13.6335 39.6306 14.0722Z" fill="#EB1616"/>
<path d="M25.9336 18.5688C25.4659 18.5688 25.0867 18.9669 25.0867 19.4581V38.2382C25.0867 38.7293 25.4659 39.1275 25.9336 39.1275C26.4013 39.1275 26.7804 38.7293 26.7804 38.2382V19.4581C26.7804 18.9669 26.4013 18.5688 25.9336 18.5688Z" fill="#EB1616"/>
<path d="M22.0612 26.2073C20.6744 24.7508 18.4178 24.7509 17.0311 26.2072C15.6442 27.6635 15.6442 30.0329 17.0311 31.4892C17.7247 32.2175 18.6354 32.5814 19.5463 32.5813C20.457 32.5813 21.368 32.2171 22.0613 31.4892C22.7332 30.7837 23.1032 29.8459 23.1032 28.8482C23.1032 27.8506 22.7331 26.9126 22.0612 26.2073ZM20.8636 30.2315C20.1371 30.9944 18.9552 30.9942 18.2288 30.2315C17.5024 29.4686 17.5024 28.2276 18.2288 27.4647C18.5921 27.0833 19.0692 26.8927 19.5463 26.8927C20.0234 26.8927 20.5004 27.0833 20.8637 27.4647C21.2156 27.8343 21.4094 28.3255 21.4094 28.8481C21.4093 29.3707 21.2155 29.8619 20.8636 30.2315Z" fill="#EB1616"/>
<path d="M34.8366 26.2072C33.4497 24.7509 31.1931 24.751 29.8065 26.2072C28.4196 27.6635 28.4196 30.033 29.8065 31.4892C30.4999 32.2174 31.4107 32.5813 32.3216 32.5813C33.2324 32.5813 34.1433 32.2174 34.8367 31.4892C36.2234 30.033 36.2234 27.6635 34.8366 26.2072ZM33.6389 30.2315C32.9124 30.9944 31.7305 30.9943 31.0041 30.2315C30.2777 29.4686 30.2777 28.2276 31.0041 27.4648C31.3674 27.0833 31.8444 26.8927 32.3215 26.8927C32.7986 26.8927 33.2757 27.0833 33.639 27.4648C34.3654 28.2276 34.3654 29.4686 33.6389 30.2315Z" fill="#EB1616"/>
</svg>
