<svg width="128" height="125" viewBox="0 0 128 125" fill="none" xmlns="http://www.w3.org/2000/svg">
<path fill-rule="evenodd" clip-rule="evenodd" d="M47.6223 45.9447H49.468V41.5626L37.514 30.5386H37.4999V30.5257V28.463V18.7135C36.4811 18.4148 35.737 17.4733 35.737 16.3579C35.737 15.0022 36.836 13.9031 38.1918 13.9031C39.5474 13.9031 40.6464 15.0022 40.6464 16.3579C40.6464 17.4733 39.9024 18.4148 38.8836 18.7135V29.738L50.8517 40.7656V45.9447H51.7328V39.9093L48.6969 34.8643L48.6969 33.6132V28.5547L42.2645 23.7752H42.2548V23.7681V21.7053V15.9611C41.7576 15.7085 41.4168 15.1922 41.4168 14.5963C41.4168 13.7514 42.1017 13.0664 42.9466 13.0664C43.7915 13.0664 44.4765 13.7514 44.4765 14.5963C44.4765 15.1922 44.1357 15.7085 43.6385 15.961V22.7334L50.0806 27.5201V27.5515V29.5828V34.7602L53.1165 39.8968V45.9447H53.6719V39.9503L50.6024 34.7182H50.5895V34.6962V33.6287L50.5895 25.9602L45.4741 22.1594V20.0967L45.4814 20.1021V9.59538C45.1412 9.37053 44.9167 8.98477 44.9167 8.54648C44.9167 7.85258 45.4793 7.29002 46.1732 7.29002C46.8671 7.29002 47.4296 7.85258 47.4296 8.54648C47.4296 8.98471 47.2052 9.37053 46.865 9.59532V21.1301L51.9731 24.9255V25.7521V26.9883V34.6059L55.0555 39.8968V45.9447H56.1693V39.2364H56.1627L53.5323 33.7568V32.8996V24.3788L50.647 22.0295V20.4109V17.6211L49.6435 16.6532C49.5553 16.669 49.4646 16.6772 49.3719 16.6772C48.527 16.6772 47.8421 15.9923 47.8421 15.1474C47.8421 14.3025 48.527 13.6175 49.3719 13.6175C50.2168 13.6175 50.9018 14.3025 50.9018 15.1474C50.9018 15.3819 50.8489 15.6039 50.7547 15.8026L52.0276 17.0304V17.53H52.0307V21.5891L54.9129 24.0434L54.9161 24.0434V24.0459L54.9173 24.0468V25.5062L54.9161 25.5052V33.652L57.5435 39.2296H57.5531V45.9445H58.939V39.0238H58.9361L55.3708 33.0798V32.687V15.9239L49.9942 10.6443H49.9867V10.6369L49.9838 10.6341L49.9867 10.6313V6.54104C48.82 6.35103 47.9295 5.33884 47.9295 4.1186C47.9295 2.76289 49.0285 1.66385 50.3843 1.66385C51.7399 1.66385 52.839 2.76286 52.839 4.1186C52.839 5.33891 51.9484 6.35103 50.7818 6.54104V10.3599L56.1659 15.6469V15.6628V16.7048V33.042L59.7321 39.0198H59.734V39.023L59.7346 39.0239H59.734V45.9447H60.7765V37.9469L57.3286 32.1673H57.3254V32.162V31.612V24.1099V23.0833V22.6128L60.209 18.7421V2.97602C59.7117 2.72337 59.3709 2.2071 59.3709 1.6112C59.3709 0.766301 60.0559 0.0813413 60.9007 0.0813413C61.7456 0.0813413 62.4306 0.766301 62.4306 1.6112C62.4306 2.2071 62.0898 2.72337 61.5926 2.97593V19.2351L58.7091 23.09V32.162L62.1574 37.9422H62.1603L62.1603 37.9469L62.1612 37.9488L62.1603 37.9488L62.1603 45.9447H63.2275V34.5033L60.1626 31.4384L60.1798 31.4212V22.657L60.1621 22.6404L63.1579 19.445V10.8258C62.8689 10.6324 62.6786 10.3031 62.6786 9.92922C62.6786 9.33382 63.1613 8.85112 63.7567 8.85112C64.3521 8.85112 64.8348 9.33382 64.8348 9.92925C64.8348 10.3031 64.6445 10.6324 64.3555 10.8258V18.1676L64.3679 18.1544V20.1112L64.3555 20.1244V20.1659H64.3166L61.5635 23.1024L61.5634 30.8824L64.6112 33.9302V33.9711V35.887V45.9447H65.5389V40.3777L68.1915 35.6723L68.1916 24.1092L65.5778 20.8271V20.3429V18.4934V12.8867C65.1905 12.6746 64.9279 12.2633 64.9279 11.7907C64.9279 11.1011 65.487 10.542 66.1766 10.542C66.8662 10.542 67.4253 11.1011 67.4253 11.7907C67.4253 12.2633 67.1627 12.6746 66.7754 12.8867V19.9972L69.5806 23.5196L69.5752 23.5238V34.0629V36.0044L66.9226 40.3876V45.9447H67.7882V39.7727H67.7904L70.208 36.5256L70.208 22.5424L67.81 19.5312V19.2196V17.1976V5.35963C67.3016 5.11098 66.9514 4.58867 66.9514 3.98461C66.9514 3.13971 67.6364 2.45475 68.4813 2.45475C69.3262 2.45475 70.0112 3.13971 70.0112 3.98461C70.0112 4.57229 69.6797 5.08251 69.1937 5.33872V18.9145L71.5917 21.8899V36.3852V36.5334L69.1727 39.7745H69.1718V45.9447H70.5111V40.478L72.1454 37.6327L72.1454 20.4226L70.4855 18.3384V16.817L70.4865 16.8182V11.0995C70.0156 10.9182 69.6814 10.4615 69.6814 9.92673C69.6814 9.23279 70.244 8.67024 70.9379 8.67024C71.6318 8.67024 72.1944 9.23279 72.1944 9.9267C72.1944 10.4615 71.8602 10.9182 71.3894 11.0995V17.9519L72.9543 19.917L72.9405 37.6482L71.3061 40.4779V45.9446H73.5414V20.4705L75.7184 18.117V12.1755L72.7351 8.74468V8.26309V6.01322V4.84604C71.6476 4.59383 70.8371 3.6189 70.8371 2.45475C70.8371 1.09903 71.9362 0 73.2919 0C74.6475 0 75.7466 1.09903 75.7466 2.45475C75.7466 3.61484 74.9417 4.58684 73.86 4.84321L73.8572 8.26788L76.8207 11.5588V18.5942L74.3366 21.2246L74.3366 45.9446H74.7066V22.0886H74.7078L74.6978 22.0734L82.4195 17.2285V6.83259C81.9222 6.57993 81.5815 6.06367 81.5814 5.46777C81.5814 4.62287 82.2664 3.93791 83.1113 3.93791C83.9562 3.93791 84.6411 4.62287 84.6411 5.46777C84.6411 6.06367 84.3004 6.57993 83.8032 6.83249V18.2468V18.2587H83.7843L76.0904 23.0861V45.9446H76.7078V34.2607L89.7597 27.3695L89.7722 27.3631V17.6522C89.2749 17.3996 88.9341 16.8833 88.9341 16.2874C88.9341 15.4425 89.6191 14.7576 90.464 14.7576C91.3089 14.7576 91.9939 15.4425 91.9939 16.2874C91.9939 16.8833 91.6531 17.3996 91.1558 17.6521V26.6405V28.6673V28.871L78.0914 35.7023V45.9446H80.0286V47.1481H83.9761H86.4366L97.4604 35.1939V35.1802L97.4734 35.1802H99.5359L109.285 35.1802C109.584 34.1614 110.526 33.417 111.641 33.417C112.997 33.417 114.096 34.5163 114.096 35.8719C114.096 37.2275 112.997 38.3265 111.641 38.3265C110.526 38.3265 109.584 37.5825 109.285 36.5636H98.2612L87.2336 48.5318H83.9761H80.0286V49.4131H83.9761L88.0896 49.413L93.1348 46.377H94.3858H99.4443L104.224 39.9447V39.935H104.231L106.294 39.935H112.038C112.29 39.4377 112.807 39.0968 113.403 39.0968C114.248 39.0968 114.933 39.7818 114.933 40.6267C114.933 41.4716 114.248 42.1566 113.403 42.1566C112.807 42.1566 112.29 41.8158 112.038 41.3188H105.265L100.479 47.7607H100.448H98.4163H93.2386L88.1022 50.7965H83.9761H80.0286V51.3521H83.9761H88.0488L93.2809 48.2826V48.2696H93.3028H94.3702H102.039L105.84 43.1543H107.902L107.897 43.1614H118.404C118.629 42.8213 119.014 42.5969 119.453 42.5969C120.147 42.5969 120.709 43.1595 120.709 43.8534C120.709 44.5474 120.147 45.1096 119.453 45.1096C119.014 45.1096 118.629 44.8853 118.404 44.5451H106.869L103.073 49.6534H102.247H101.011L93.3929 49.6534L88.1022 52.7358H83.9761H80.0286V53.8496H83.9761H88.7628V53.8429L94.2422 51.2122H95.0994H103.62L105.969 48.3271H107.588H110.378L111.346 47.3235C111.33 47.2356 111.322 47.1447 111.322 47.052C111.322 46.2071 112.007 45.5221 112.852 45.5221C113.696 45.5221 114.381 46.2071 114.381 47.052C114.381 47.8969 113.696 48.5819 112.852 48.5819C112.617 48.5819 112.395 48.5293 112.197 48.4347L110.969 49.7079H110.469V49.7107H106.41L103.955 52.5929V52.5958H103.953L103.952 52.597L102.493 52.597L102.493 52.5957H94.347L88.7692 55.2231V55.2327H83.9762H80.0287V56.6188H83.9762H88.975V56.6162L94.9192 53.0509H95.312H112.075L117.355 47.6741V47.6667H117.362L117.365 47.6638L117.367 47.667L121.458 47.667C121.648 46.5002 122.66 45.6097 123.88 45.6097C125.236 45.6097 126.335 46.7086 126.335 48.0646C126.335 49.4202 125.236 50.5191 123.88 50.5191C122.66 50.5191 121.648 49.6286 121.458 48.4622H117.639L112.352 53.846H112.336H111.294L94.9568 53.846L88.9789 57.4124V57.4143H88.976L88.9751 57.4146L83.9762 57.4143H80.0288V58.4569H80.3045H83.9762H90.0521L95.8317 55.0088V55.0056H95.8372H96.3873H103.889H104.916H105.387L109.257 57.8889H125.023C125.276 57.3919 125.792 57.0511 126.388 57.0511C127.233 57.0511 127.918 57.7361 127.918 58.581C127.918 59.4259 127.233 60.1105 126.388 60.1105C125.792 60.1105 125.276 59.7701 125.023 59.2727H108.764L104.909 56.389H95.8372L90.057 59.8375V59.8401H90.0521L90.0502 59.8413V59.8401L83.9762 59.8401H80.3044H80.0288V60.9075L83.9762 60.9075L93.4958 60.9075L96.5608 57.8425L96.5779 57.8595H105.342L105.359 57.8421L108.554 60.8378H117.173C117.366 60.5489 117.696 60.3586 118.07 60.3586C118.665 60.3586 119.148 60.8411 119.148 61.4367C119.148 62.032 118.665 62.5146 118.07 62.5146C117.696 62.5146 117.366 62.3243 117.173 62.0354H109.832L109.845 62.0476H107.888L107.875 62.0354H107.833V61.9964L104.897 59.2433H97.1168L94.0688 62.2913H94.028H92.112H83.9762H80.0288V63.2189H83.9762H87.6213L92.3268 65.8715H103.89L107.172 63.2578H107.656H109.506H115.112C115.324 62.8702 115.736 62.6076 116.208 62.6076C116.898 62.6076 117.457 63.167 117.457 63.8564C117.457 64.5463 116.898 65.1052 116.208 65.1052C115.736 65.1052 115.324 64.8426 115.112 64.4554H108.002L104.48 67.2604L104.475 67.2552H93.936H91.9948L87.6116 64.6027H83.9762H80.0288V65.4683H83.9762H88.2262V65.4705L91.4733 67.8879H105.457L108.468 65.4902H108.779H110.801H122.639C122.888 64.9817 123.411 64.6316 124.014 64.6316C124.859 64.6316 125.544 65.3166 125.544 66.1615C125.544 67.0064 124.859 67.691 124.014 67.691C123.427 67.691 122.916 67.3598 122.66 66.8736H109.085L106.109 69.2717H91.6139H91.4656L88.2244 66.8528V66.8515H83.9762H80.0288V68.1908H83.9762H87.5212L90.3663 69.8253H107.577L109.661 68.1653H111.182L111.181 68.1665H116.899C117.081 67.6959 117.537 67.3617 118.072 67.3617C118.766 67.3617 119.329 67.924 119.329 68.6179C119.329 69.3118 118.766 69.8745 118.072 69.8745C117.537 69.8745 117.081 69.5403 116.899 69.0693H110.047L108.082 70.6344L90.3505 70.6207L87.521 68.9862L83.9761 68.9862L80.0286 68.9862V71.2215H81.437H83.9761H107.528L109.882 73.3986H115.823L119.254 70.4152H119.736H121.986H123.153C123.405 69.3278 124.38 68.5173 125.544 68.5173C126.9 68.5173 127.999 69.6163 127.999 70.9719C127.999 72.3275 126.9 73.4268 125.544 73.4268C124.384 73.4268 123.412 72.6216 123.156 71.5401L119.731 71.5373L116.44 74.501H109.405L106.774 72.0168L83.9761 72.0168H81.437H80.0286V72.3866H81.437H83.9761H105.91L105.91 72.3876L105.926 72.3775L110.771 80.0994H121.166C121.419 79.6021 121.935 79.2612 122.531 79.2612C123.376 79.2612 124.061 79.9463 124.061 80.7911C124.061 81.636 123.376 82.3211 122.531 82.3211C121.935 82.3211 121.419 81.9802 121.167 81.4829H109.752H109.74V81.4643L104.913 73.7702H83.9761H81.437H80.0286V74.3878H81.8401H83.9761H93.7382L100.629 87.4397L100.636 87.4519L110.347 87.4519C110.599 86.9549 111.115 86.6141 111.711 86.6141C112.556 86.6141 113.241 87.2991 113.241 88.144C113.241 88.9889 112.556 89.6736 111.711 89.6736C111.115 89.6736 110.599 89.3331 110.347 88.8357H101.359H99.3316H99.128L92.2966 75.7712H83.9761L81.8401 75.7712H80.0286V78.145H78.3712V80.6057V83.0684L90.3249 94.0923H90.339V94.1053V96.1682V105.917C91.3579 106.216 92.1022 107.158 92.1022 108.273C92.1022 109.629 91.0029 110.728 89.6473 110.728C88.2917 110.728 87.1928 109.629 87.1928 108.273C87.1928 107.158 87.9368 106.216 88.9556 105.917V94.893L76.9874 83.8654L76.9875 80.6057L76.9874 78.145H76.1062V80.6057V84.7218L79.1423 89.7666V91.018V96.0762L85.5746 100.856H85.5843V100.863V102.926V108.67C86.0816 108.923 86.4225 109.439 86.4225 110.035C86.4225 110.879 85.7374 111.564 84.8925 111.564C84.0477 111.564 83.3626 110.879 83.3626 110.035C83.3626 109.439 83.7035 108.923 84.2005 108.67V101.898L77.7585 97.1109V97.0794V95.0481V89.8708L74.7228 84.734V80.6057V78.145H74.1672L74.1672 80.6057L74.1672 84.6806L77.2367 89.9128H77.2497V89.9346V91.0024V98.6709L82.3649 102.471V104.534L82.3579 104.529V115.036C82.698 115.26 82.9224 115.646 82.9224 116.084C82.9224 116.778 82.3597 117.341 81.6658 117.341C80.9719 117.341 80.4096 116.778 80.4096 116.084C80.4096 115.646 80.634 115.26 80.9741 115.036V103.501L75.8659 99.7053V98.879V97.6428V90.0252L72.7834 84.734V80.6057V78.145H71.6697V80.6057V85.3946H71.6763L74.3067 90.8741V91.7312V100.252L77.1922 102.602V104.22L77.1922 107.01L78.1954 107.978C78.2837 107.962 78.3746 107.954 78.4673 107.954C79.3122 107.954 79.9972 108.639 79.9972 109.484C79.9972 110.329 79.3122 111.013 78.4673 111.013C77.6224 111.013 76.9374 110.329 76.9374 109.484C76.9374 109.249 76.99 109.027 77.0843 108.828L75.8114 107.6V107.101H75.8085V103.042L72.9263 100.588H72.9235V100.585L72.9225 100.584V99.1247L72.9235 99.126V90.9791L70.2961 85.4017H70.2865V80.6061L70.2865 78.1454H68.9005L68.9005 80.6061L68.9005 85.6075H68.903L72.4684 91.5514V91.9441V108.707L77.8451 113.987H77.8525V113.994L77.8554 113.997L77.8525 114V118.09C79.0193 118.28 79.9099 119.292 79.9099 120.513C79.9099 121.869 78.8105 122.967 77.4549 122.967C76.0994 122.967 75.0004 121.869 75.0004 120.513C75.0004 119.292 75.8909 118.28 77.0574 118.09V114.271L71.6732 108.985V108.968V107.926V91.5892L68.1071 85.6116H68.1052V85.6083L68.1049 85.6076L68.1052 80.6062V78.1455H67.0627L67.0626 80.6062L67.0627 86.6847L70.5108 92.4642L70.5136 92.4642V92.4694V93.0195V100.521V101.548V102.019L67.6303 105.889V121.655C68.1273 121.908 68.4682 122.424 68.4682 123.02C68.4682 123.865 67.7831 124.55 66.9383 124.55C66.0934 124.55 65.4084 123.865 65.4084 123.02C65.4084 122.424 65.7492 121.908 66.2466 121.655V105.396L69.1302 101.541V92.4694L65.6817 86.6891H65.6792V86.6847L65.6779 86.6828H65.6792V80.6062V78.1455H64.6118V80.6062V90.128L67.6768 93.193L67.6597 93.21V101.975L67.6771 101.991L64.6815 105.186V113.805C64.9704 113.999 65.1607 114.328 65.1607 114.702C65.1607 115.298 64.6781 115.78 64.0825 115.78C63.4872 115.78 63.0047 115.298 63.0047 114.702C63.0047 114.328 63.195 113.999 63.4839 113.805V106.464L63.4713 106.477V104.52L63.4839 104.507V104.465H63.5228L66.2759 101.529V93.7489L63.2279 90.7014L63.228 90.6602V88.7446L63.2279 80.6062V78.1455H62.3004V80.6062V84.2538L59.6478 88.9589V100.522L62.2614 103.804V104.288V106.138V111.745C62.6486 111.957 62.9116 112.368 62.9116 112.841C62.9116 113.53 62.3523 114.09 61.6628 114.09C60.973 114.09 60.4141 113.53 60.4141 112.841C60.4141 112.368 60.6766 111.957 61.0638 111.745V104.634L58.2588 101.112L58.264 101.108V90.5686V88.627L60.9166 84.2439V80.6062V78.1455H60.051V80.6062V84.8588H60.0488L57.6313 88.1059V102.089L60.0291 105.1V105.412L60.0291 107.434L60.0291 119.272C60.5376 119.521 60.8877 120.043 60.8877 120.647C60.8877 121.492 60.2027 122.177 59.3578 122.177C58.5129 122.177 57.8279 121.492 57.8279 120.647C57.8279 120.059 58.1595 119.549 58.6457 119.293V105.717L56.2475 102.742V88.2461V88.0981L58.6665 84.8569H58.6677V80.6062V78.1455H57.3284V80.6062V84.1534L55.6939 86.9988V104.209L57.3541 106.293V107.815L57.3528 107.813V113.532C57.8235 113.713 58.1576 114.17 58.1576 114.704C58.1576 115.398 57.5954 115.961 56.9014 115.961C56.2075 115.961 55.6449 115.398 55.6448 114.704C55.6448 114.17 55.979 113.713 56.4497 113.532V106.679L54.8849 104.714L54.8986 86.9831L56.5331 84.1533V80.6061V78.1454H54.2978V80.6061V104.161L52.1207 106.514V112.456L55.1041 115.886V116.368L55.1041 118.618L55.1041 119.785C56.1916 120.037 57.0019 121.012 57.0019 122.176C57.0019 123.532 55.903 124.631 54.5474 124.631C53.1918 124.631 52.0925 123.532 52.0925 122.176C52.0925 121.017 52.8973 120.044 53.9792 119.788L53.982 116.363L51.0183 113.073L51.0183 106.037L53.5025 103.407V80.6061V78.1454H53.1327V80.6061V102.543L53.1315 102.543L53.1415 102.558L45.4196 107.403V117.799C45.917 118.051 46.2578 118.568 46.2578 119.164C46.2578 120.008 45.5728 120.694 44.7279 120.694C43.883 120.694 43.198 120.008 43.198 119.164C43.198 118.568 43.5388 118.051 44.0358 117.799V106.384V106.372H44.0547L51.7488 101.545V80.6061V78.1454H51.1313V78.4724V80.6061V90.3705L38.0793 97.2616L38.0671 97.2682V106.979C38.5641 107.232 38.9049 107.748 38.9049 108.344C38.9049 109.189 38.2199 109.874 37.375 109.874C36.5301 109.874 35.8451 109.189 35.8451 108.344C35.8451 107.748 36.186 107.232 36.6833 106.979V97.9907L36.6833 95.9642L36.6833 95.7602L49.7479 88.9288V80.6061V78.4724V78.1454H47.6224V75.9433L44.5272 75.9433L41.5613 75.9433L30.5373 87.897V87.9111H30.5244H28.4615H18.7123C18.4134 88.9299 17.4721 89.6739 16.3564 89.6739C15.0009 89.6739 13.9019 88.575 13.9019 87.2194C13.9019 85.8638 15.0009 84.7645 16.3564 84.7645C17.4721 84.7645 18.4134 85.5088 18.7123 86.5277H29.7366L40.7642 74.5595H44.5272H47.6224V73.6782H44.5272H39.9078L34.863 76.7143H33.6116H28.5535L23.7738 83.1467V83.1563L23.7668 83.1563L21.7039 83.1563H15.9596C15.707 83.6537 15.1907 83.9945 14.5951 83.9945C13.7502 83.9945 13.0652 83.3095 13.0652 82.4646C13.0652 81.6197 13.7502 80.9347 14.5951 80.9347C15.1907 80.9347 15.707 81.2755 15.9596 81.7725H22.732L27.5187 75.3305L27.5502 75.3306H29.5816H34.7588L39.8956 72.2945H44.5272H47.6224V71.7392H44.5272H39.949L34.7169 74.8087V74.8217H34.695H33.6272H25.9587L22.1583 79.937H20.0954L20.1009 79.9296H9.59405C9.3693 80.2701 8.98357 80.4944 8.54518 80.4945C7.85125 80.4945 7.2886 79.9318 7.2886 79.2379C7.2886 78.5439 7.85125 77.9813 8.54518 77.9813C8.98357 77.9813 9.3693 78.2061 9.59405 78.5462H21.1287L24.9243 73.4379H25.7507H26.9868L34.6045 73.4379L39.8956 70.3555H44.5272H47.6224V69.2417L44.5272 69.2417L39.235 69.2417V69.2484L33.7555 71.8787H32.8984L24.3776 71.8787L22.0281 74.7642H20.4095H17.6197L16.6517 75.7675C16.6676 75.8558 16.6758 75.9466 16.6758 76.0393C16.6758 76.8842 15.9908 77.5689 15.1459 77.5689C14.301 77.5689 13.6163 76.8842 13.6163 76.0393C13.6163 75.1944 14.301 74.5094 15.1459 74.5094C15.3807 74.5094 15.6024 74.5621 15.8012 74.6563L17.0292 73.3834H17.5288V73.3806H21.5878L24.042 70.4984V70.4956H24.0445L24.0458 70.494H25.5052L25.504 70.4956H33.6509L39.2283 67.8682L39.2283 67.8585H44.5272H47.6223V66.4725H44.5272H39.0225V66.475L33.0786 70.0404H32.6858H15.9228L10.6432 75.4171V75.4245H10.6358L10.633 75.4277L10.6301 75.4245H6.53997C6.35008 76.5914 5.33793 77.4819 4.11772 77.4819C2.76175 77.4819 1.66278 76.3826 1.66281 75.027C1.66281 73.6714 2.76175 72.5724 4.11772 72.5724C5.33793 72.5724 6.35008 73.4629 6.53997 74.6294H10.359L15.6457 69.2452L15.662 69.2452H16.7038L33.041 69.2452L39.0186 65.6791V65.6772H39.022L39.0226 65.6766V65.6772H44.5273H47.6225V64.6347H44.5273H37.9456L32.166 68.0828V68.0859H32.1608H31.6108H24.1088H23.0822H22.6116L18.741 65.2026H2.97491C2.72232 65.6996 2.20606 66.0405 1.61004 66.0405C0.765165 66.0405 0.0801437 65.3554 0.0801437 64.5105C0.0801437 63.6657 0.765165 62.9807 1.61004 62.9807C2.20606 62.9807 2.72232 63.3215 2.97491 63.8188H19.2339L23.0889 66.7025H32.1608L37.9411 63.254V63.2515H37.9456L37.9475 63.2502V63.2515H44.5274H47.6225V62.1841H44.5274H34.5023L31.4372 65.2491L31.4202 65.2317H22.6557L22.6394 65.2495L19.4438 62.2538H10.8248C10.6312 62.5427 10.3018 62.733 9.92798 62.733C9.33271 62.733 8.84979 62.2505 8.84979 61.6548C8.84979 61.0596 9.33271 60.5766 9.92798 60.5766C10.3018 60.5766 10.6312 60.7673 10.8248 61.0562H18.1665L18.1532 61.0436H20.11L20.1233 61.0562H20.1649V61.0951L23.1012 63.8483H30.8813L33.9289 60.8003H33.97H35.8857H44.5274H47.6225V59.8727H44.5274H40.3764L35.6713 57.2201H24.1081L20.8262 59.8338H20.3418H18.4922H12.8855C12.6736 60.2209 12.2623 60.4836 11.7895 60.4836C11.1 60.4836 10.5407 59.9246 10.5407 59.2351C10.5407 58.5453 11.1 57.9863 11.7895 57.9863C12.2623 57.9863 12.6737 58.249 12.8855 58.6362H19.9961L23.5184 55.8311L23.5225 55.8363L34.0616 55.8363L36.0032 55.8363L40.3864 58.4889H44.5274H47.6225V57.6233H44.5274H39.7715V57.6211L36.5244 55.2036H22.5411L19.5303 57.6014H19.2184H17.1963H5.35862C5.10978 58.1099 4.58756 58.46 3.98338 58.46C3.13851 58.46 2.45349 57.7749 2.45349 56.9301C2.45349 56.0852 3.13851 55.4002 3.98338 55.4002C4.57125 55.4002 5.08122 55.7317 5.33749 56.218H18.9135L21.8887 53.8198H36.3842H36.5321L39.7733 56.2387V56.24L44.5274 56.24L47.6225 56.24V54.9007H44.5274H40.4769L37.6314 53.2662H20.4215L18.3371 54.9263H16.8157L16.8173 54.925H11.0986C10.9172 55.3957 10.4606 55.7298 9.92584 55.7298C9.2319 55.7298 8.66929 55.1676 8.66929 54.4736C8.66929 53.7797 9.2319 53.2171 9.92584 53.2171C10.4606 53.2171 10.9172 53.5512 11.0986 54.0219H17.9511L19.9161 52.4571L37.6471 52.4709L40.477 54.1053H44.5275H47.6226V51.87H46.561H44.5275H20.4694L18.1162 49.6929H12.1745L8.74383 52.6763H8.26205H6.01224H4.84507C4.59285 53.7638 3.61777 54.5742 2.45393 54.5742C1.09796 54.5742 -0.000976562 53.4752 -0.000976562 52.1196C-0.000976562 50.7637 1.09796 49.6647 2.45393 49.6647C3.61371 49.6647 4.5858 50.4695 4.84207 51.5514L8.26687 51.5543L11.5578 48.5905H18.5931L21.2235 51.0747L44.5275 51.0747L46.561 51.0747H47.6226V50.7049H46.561H44.5275H22.0876V50.7033L22.0724 50.7137L17.2275 42.9918H6.83154C6.57895 43.4892 6.06266 43.83 5.46666 43.83C4.62176 43.83 3.93674 43.145 3.93674 42.3002C3.93674 41.4552 4.6218 40.7702 5.46666 40.7702C6.06269 40.7702 6.57895 41.1111 6.83151 41.6081H18.246H18.2578V41.627L23.0853 49.3211H44.5275H46.561H47.6226V48.7035H46.1579H44.5275H34.2598L27.3687 35.6516L27.362 35.6394H17.6511C17.3985 36.1363 16.8822 36.4772 16.2866 36.4772C15.4417 36.4772 14.7567 35.7922 14.7567 34.9473C14.7567 34.1024 15.4417 33.4174 16.2866 33.4173C16.8822 33.4174 17.3985 33.7582 17.6511 34.2556H26.6395H28.6661H28.87L35.7014 47.3201H44.5275H46.1579H47.6226L47.6223 45.9447ZM50.8164 49.1389H76.8344V74.9513H50.8164V49.1389Z" fill="white" fill-opacity="0.9"/>
<path fill-rule="evenodd" clip-rule="evenodd" d="M55.3532 62.8646C55.5132 62.8942 55.6864 62.9239 55.9528 62.9239C56.4859 62.9239 57.0454 62.7758 57.5385 62.4649C58.1914 62.0504 58.791 61.2362 58.791 59.9927C58.791 58.9861 58.378 58.3199 57.9116 57.9351C57.3519 57.4762 56.5658 57.4169 56.1528 57.4169C55.22 57.4169 54.6204 57.4317 53.6877 57.4465C53.0081 57.4465 52.262 57.4021 51.9421 57.4021C51.9021 57.4614 51.8755 57.787 51.9155 57.8758C52.182 57.9055 52.3952 57.9499 52.5817 57.9942C52.9282 58.0831 52.9947 58.3051 53.0214 58.8085C53.0481 59.2525 53.0481 60.1259 53.0481 61.7247C53.0481 63.4567 53.0347 64.5226 53.0081 65.0555C52.9947 65.5293 52.9548 65.7809 52.6217 65.8697C52.4218 65.9289 52.1953 65.9585 51.9288 66.003C51.8755 66.0622 51.8755 66.3878 51.9288 66.4767C52.4885 66.4767 53.2346 66.4323 53.9142 66.4323C54.5804 66.4323 55.4732 66.4767 55.9662 66.4767C56.0328 66.4026 56.0461 66.0769 55.9928 65.9881C55.6597 65.9585 55.3799 65.9141 55.1533 65.8549C54.8069 65.7513 54.7403 65.5144 54.7136 65.1C54.687 64.3005 54.687 62.7018 54.687 61.6359C54.687 59.5338 54.7003 58.69 54.7136 58.2755C54.727 58.1867 54.7803 58.0831 54.8069 58.0683C54.9135 58.009 55.1533 58.009 55.2333 58.009C56.4459 58.009 57.0588 58.9416 57.0721 60.3036C57.0721 61.2362 56.8456 61.7987 56.3659 62.1244C56.1528 62.2576 55.9262 62.3317 55.6197 62.3317C55.4199 62.3317 55.2733 62.3021 55.1933 62.3021C55.1667 62.3169 55.14 62.3909 55.14 62.4501C55.1534 62.5241 55.26 62.7906 55.3532 62.8646ZM66.9457 59.8891C66.959 59.9631 67.3588 59.9187 67.4121 59.8447C67.4254 59.102 67.5453 57.9351 67.6253 57.4465C67.0256 57.4021 66.013 57.1801 64.947 57.1801C63.8277 57.1801 62.9483 57.4021 62.2421 57.8166C60.7764 58.6456 60.0835 60.2148 60.0835 61.858C60.0835 65.0111 61.8157 66.6987 64.7871 66.6987C65.7199 66.6987 66.386 66.4915 66.7992 66.3434C67.1589 66.0769 67.7052 64.9075 67.8652 64.2857C67.8118 64.1673 67.5853 64.0193 67.492 64.0045C67.1856 64.5966 66.8124 65.1591 66.4793 65.47C66.0929 65.8549 65.5732 65.9585 65.1335 65.9585C62.9084 65.9585 61.9756 63.8417 61.9756 61.7099C61.9756 59.0897 63.0016 57.7426 64.5872 57.7426C65.1469 57.7426 65.7066 57.8314 66.1728 58.1127C66.6925 58.4383 66.8124 58.912 66.9457 59.8891ZM68.7712 57.8758C68.9977 57.8907 69.2909 57.9499 69.4907 58.0238C69.7306 58.0979 69.8238 58.2459 69.8505 58.6456C69.8771 59.371 69.8771 60.2592 69.8771 61.8876C69.8771 63.5307 69.8638 64.7298 69.8372 65.1295C69.8105 65.5885 69.7173 65.7513 69.4907 65.8253C69.2642 65.9141 68.971 65.9437 68.6246 65.9881C68.5713 66.0474 68.5713 66.4026 68.6246 66.4767C69.5307 66.4619 71.5161 66.5359 72.1024 66.5359C72.8752 66.5359 73.7146 66.4175 74.3142 66.1213C75.3669 65.618 75.9399 64.8039 75.9399 63.6196C75.9399 62.3317 75.0871 61.6655 73.9412 61.3842C73.9145 61.3694 73.9145 61.3398 73.9412 61.325C74.8339 60.9994 75.3536 60.2592 75.3536 59.445C75.3536 57.7426 73.9812 57.4021 72.8352 57.4021C72.3023 57.4021 71.5161 57.4465 70.5567 57.4465C69.624 57.4465 69.091 57.4021 68.7712 57.4021C68.7312 57.4317 68.7179 57.8166 68.7712 57.8758ZM71.9691 57.9942C73.1817 57.9942 73.7546 58.7196 73.7546 59.8595C73.7546 60.4368 73.5814 60.8809 73.2216 61.1326C73.075 61.2214 72.742 61.2807 72.2623 61.2807C71.9291 61.2807 71.6893 61.2807 71.5561 61.2659C71.5294 61.2659 71.4894 61.2214 71.4894 61.177C71.4894 60.1851 71.5027 58.69 71.5294 58.2607C71.5294 58.1867 71.5827 58.0683 71.6227 58.0535C71.7293 58.0238 71.8625 57.9942 71.9691 57.9942ZM72.6753 65.9733C72.4755 65.9733 71.9958 65.8845 71.7559 65.6476C71.6493 65.5441 71.5427 65.3072 71.5294 65.1443C71.4894 64.4782 71.4894 62.983 71.4894 61.9616C71.4894 61.9172 71.5427 61.8876 71.5694 61.8876C71.6627 61.8727 71.8892 61.8728 72.0624 61.8728C73.4082 61.8728 74.1677 62.6426 74.1677 63.9452C74.1677 65.2776 73.5681 65.9733 72.6753 65.9733Z" fill="white" fill-opacity="0.9"/>
</svg>
